<svg width="82" height="80" viewBox="0 0 82 80" fill="none" xmlns="http://www.w3.org/2000/svg">
<path d="M3 3H73.5219C75.0701 3 76.5158 3.77374 77.3746 5.0619V5.0619C78.3672 6.55076 78.413 8.47827 77.4924 10.0127L77.4166 10.1389C76.5378 11.6037 74.9548 12.5 73.2466 12.5H41H7.92443C6.14608 12.5 4.53453 13.5473 3.81228 15.1724V15.1724C3.29515 16.3359 3.29515 17.6641 3.81228 18.8276V18.8276C4.53453 20.4527 6.14608 21.5 7.92443 21.5H61.0219C62.5701 21.5 64.0158 22.2737 64.8746 23.5619V23.5619C65.8672 25.0508 65.913 26.9783 64.9924 28.5127L64.9166 28.6389C64.0378 30.1037 62.4548 31 60.7466 31H32.5161C30.6676 31 28.9778 32.0444 28.1512 33.6977L28.0882 33.8236C27.4072 35.1856 27.4422 36.796 28.1817 38.1271V38.1271C28.9954 39.5917 30.5391 40.5 32.2145 40.5H51.1472C52.882 40.5 54.4541 41.5216 55.1586 43.1069L55.2136 43.2306C55.7115 44.3509 55.6824 45.6353 55.1341 46.7319V46.7319C54.439 48.1219 53.0183 49 51.4642 49H20.7145C19.0391 49 17.4954 49.9083 16.6817 51.3729V51.3729C15.9422 52.704 15.9072 54.3144 16.5882 55.6764L16.6512 55.8023C17.4778 57.4556 19.1676 58.5 21.0161 58.5H74.0756C75.8539 58.5 77.4655 59.5473 78.1877 61.1724V61.1724C78.7049 62.3359 78.7049 63.6641 78.1877 64.8276V64.8276C77.4655 66.4527 75.8539 67.5 74.0756 67.5H9.77191C8.33844 67.5 6.98525 68.1618 6.10518 69.2933V69.2933C4.85374 70.9023 4.79745 73.1392 5.96638 74.8091L6.05238 74.932C6.95966 76.2281 8.44225 77 10.0243 77H79" stroke="#E7403C" stroke-width="5" stroke-linecap="round"/>
</svg>
